<svg width="14" height="15" viewBox="0 0 14 15" fill="none" xmlns="http://www.w3.org/2000/svg">
<path id="Vector" d="M1.86105 0C1.73078 0 1.61912 0.01875 1.50745 0.05625C0.781642 0.20625 0.204716 0.7875 0.0558316 1.51875C0 1.63125 0 1.74375 0 1.875V12.1875C0 13.7437 1.24691 15 2.79158 15H13.0274V13.125H2.79158C2.27048 13.125 1.86105 12.7125 1.86105 12.1875C1.86105 11.6625 2.27048 11.25 2.79158 11.25H13.0274V0.9375C13.0274 0.4125 12.6179 0 12.0968 0H11.1663V5.625L9.30526 3.75L7.44421 5.625V0H1.86105Z" fill="#ACB3C0"/>
</svg>
